HIERARCHY
ROOT Hips
{
    OFFSET 0.000000 0.000000 0.000000
    CHANNELS 6 Xposition Yposition Zposition Zrotation Xrotation Yrotation
    JOINT Spine
    {
        OFFSET -0.000000 14.517291 0.000000
        CHANNELS 3 Zrotation Xrotation Yrotation
        JOINT Spine1
        {
            OFFSET -0.000000 37.558300 0.000000
            CHANNELS 3 Zrotation Xrotation Yrotation
            JOINT Neck
            {
                OFFSET -0.000000 37.404057 3.400369
                CHANNELS 3 Zrotation Xrotation Yrotation
                JOINT Head
                {
                    OFFSET -0.000000 24.785618 -3.540803
                    CHANNELS 3 Zrotation Xrotation Yrotation
                    End Site
                    {
                        OFFSET -0.000000 35.408028 0.000000
                    }
                }
            }
            JOINT LeftShoulder
            {
                OFFSET 6.992933 33.973492 -0.192664
                CHANNELS 3 Zrotation Xrotation Yrotation
                JOINT LeftArm
                {
                    OFFSET 21.527611 0.000000 0.000000
                    CHANNELS 3 Zrotation Xrotation Yrotation
                    JOINT LeftForeArm
                    {
                        OFFSET 56.353916 0.000000 0.000000
                        CHANNELS 3 Zrotation Xrotation Yrotation
                        JOINT LeftHand
                        {
                            OFFSET 47.774071 0.000000 0.000000
                            CHANNELS 3 Zrotation Xrotation Yrotation
                            End Site
                            {
                                OFFSET 26.556021 0.000000 0.000000
                            }
                        }
                    }
                }
            }
            JOINT RightShoulder
            {
                OFFSET -7.065357 33.973492 -0.192664
                CHANNELS 3 Zrotation Xrotation Yrotation
                JOINT RightArm
                {
                    OFFSET -21.527611 0.000000 0.000000
                    CHANNELS 3 Zrotation Xrotation Yrotation
                    JOINT RightForeArm
                    {
                        OFFSET -56.353916 0.000000 0.000000
                        CHANNELS 3 Zrotation Xrotation Yrotation
                        JOINT RightHand
                        {
                            OFFSET -47.774071 0.000000 0.000000
                            CHANNELS 3 Zrotation Xrotation Yrotation
                            End Site
                            {
                                OFFSET -26.556021 0.000000 0.000000
                            }
                        }
                    }
                }
            }
        }
    }
    JOINT LeftUpLeg
    {
        OFFSET 17.704014 0.000000 0.000000
        CHANNELS 3 Zrotation Xrotation Yrotation
        JOINT LeftLeg
        {
            OFFSET -0.000000 -81.181816 0.000000
            CHANNELS 3 Zrotation Xrotation Yrotation
            JOINT LeftFoot
            {
                OFFSET -0.000000 -62.821102 0.000000
                CHANNELS 3 Zrotation Xrotation Yrotation
                JOINT LeftToeBase
                {
                    OFFSET -0.000000 -11.507608 26.556021
                    CHANNELS 3 Zrotation Xrotation Yrotation
                    End Site
                    {
                        OFFSET -0.000000 0.000000 7.081605
                    }
                }
            }
        }
    }
    JOINT RightUpLeg
    {
        OFFSET -17.704014 0.000000 0.000000
        CHANNELS 3 Zrotation Xrotation Yrotation
        JOINT RightLeg
        {
            OFFSET -0.000000 -81.181816 0.000000
            CHANNELS 3 Zrotation Xrotation Yrotation
            JOINT RightFoot
            {
                OFFSET -0.000000 -62.821102 0.000000
                CHANNELS 3 Zrotation Xrotation Yrotation
                JOINT RightToeBase
                {
                    OFFSET -0.000000 -11.507608 26.556021
                    CHANNELS 3 Zrotation Xrotation Yrotation
                    End Site
                    {
                        OFFSET -0.000000 0.000000 7.081605
                    }
                }
            }
        }
    }
}
MOTION
Frames:    11
Frame Time:    0.008333
-31.247992    150.044067    -29.964283    2.659106    0.258892    20.477612    -5.661385    3.232753    2.404602    0.620923    -0.425694    0.752255    -3.972523    -3.038023    -12.433963    13.127328    1.172167    -10.530814    14.892721    -11.862982    -19.077736    -33.440117    -20.422707    -88.078873    43.907677    -66.904671    -55.589794    -31.501671    -45.624371    -49.193939    1.101167    9.993850    3.144011    33.645302    12.338963    55.757027    -30.819893    -31.600180    53.848797    15.644975    -12.454415    32.795090    -2.099161    -33.249836    -27.257313    -13.628214    30.544283    -22.140024    -6.270137    -3.636714    32.942780    0.000000    0.000000    0.000000    -0.021103    8.849005    -16.689423    2.934038    31.608280    -4.309120    -0.091813    -35.174206    -7.548795    0.000000    0.000000    0.000000    
-31.234947    150.047836    -29.970486    2.662297    0.261391    20.466850    -5.668268    3.240174    2.407418    0.627529    -0.430565    0.752976    -3.977055    -3.034041    -12.432763    13.140181    1.174440    -10.527465    14.890871    -11.865068    -19.084707    -33.409348    -20.407187    -88.066147    44.012455    -66.913422    -55.498093    -31.493814    -45.623608    -49.221695    1.105984    10.002824    3.135544    33.631496    12.357080    55.758907    -30.833202    -31.622061    53.847874    15.652871    -12.470057    32.796139    -2.108913    -33.249428    -27.259798    -13.623407    30.545525    -22.139341    -6.266053    -3.632362    32.953323    0.000000    0.000000    0.000000    -0.034031    8.845014    -16.670506    2.945098    31.610563    -4.334253    -0.075802    -35.169777    -7.536316    0.000000    0.000000    0.000000    
-31.223465    150.052551    -29.976147    2.659574    0.263979    20.457096    -5.672933    3.239261    2.401966    0.638939    -0.427626    0.751226    -3.983752    -3.053377    -12.429016    13.146016    1.212450    -10.525245    14.891026    -11.856058    -19.083132    -33.391151    -20.401651    -88.061234    44.115669    -66.909828    -55.404247    -31.515800    -45.585602    -49.275204    1.104013    10.005434    3.144056    33.638924    12.357322    55.748951    -30.820349    -31.622204    53.865135    15.658154    -12.467862    32.808872    -2.104947    -33.249687    -27.267208    -13.627502    30.534763    -22.141066    -6.266523    -3.624419    32.965595    0.000000    0.000000    0.000000    -0.041346    8.845987    -16.659134    2.953411    31.599976    -4.352252    -0.068611    -35.172649    -7.509899    0.000000    0.000000    0.000000    
-31.211376    150.055801    -29.981438    2.658995    0.265754    20.444792    -5.676005    3.240068    2.400085    0.647679    -0.424381    0.750561    -3.987365    -3.050010    -12.426802    13.146818    1.211867    -10.522227    14.886142    -11.861980    -19.090628    -33.373707    -20.387283    -88.042313    44.228367    -66.912331    -55.310642    -31.527243    -45.564445    -49.302128    1.106212    10.015835    3.144063    33.643368    12.354206    55.747200    -30.812334    -31.614340    53.887608    15.656314    -12.459704    32.783287    -2.108582    -33.250587    -27.251829    -13.619393    30.539503    -22.144186    -6.272692    -3.624775    32.974346    0.000000    0.000000    0.000000    -0.045999    8.843249    -16.656570    2.939131    31.598080    -4.319458    -0.068849    -35.164230    -7.533226    0.000000    0.000000    0.000000    
-31.199371    150.059479    -29.987776    2.659121    0.268012    20.434265    -5.686034    3.242833    2.401510    0.661334    -0.424748    0.750937    -3.975300    -3.048659    -12.424384    13.129897    1.214973    -10.524444    14.878542    -11.851012    -19.109228    -33.345680    -20.391016    -88.030434    44.280312    -66.919899    -55.271111    -31.511837    -45.569519    -49.325035    1.120194    10.012386    3.140203    33.625229    12.371138    55.730686    -30.812954    -31.630205    53.899300    15.664187    -12.470268    32.790230    -2.106889    -33.251862    -27.248655    -13.624863    30.535412    -22.121710    -6.255312    -3.608406    32.956619    0.000000    0.000000    0.000000    -0.053436    8.845303    -16.643318    2.948559    31.583183    -4.333426    -0.076930    -35.165524    -7.531713    0.000000    0.000000    0.000000    
-31.187767    150.062851    -29.992367    2.657719    0.268325    20.422815    -5.696769    3.243429    2.398793    0.680050    -0.421426    0.749930    -3.969702    -3.046043    -12.417037    13.124061    1.218747    -10.519032    14.870396    -11.845840    -19.112776    -33.360504    -20.391500    -88.041183    44.211334    -66.924789    -55.340424    -31.526911    -45.569973    -49.355774    1.119242    10.019930    3.146266    33.623753    12.372628    55.727333    -30.821192    -31.635092    53.895435    15.649246    -12.475372    32.802425    -2.104731    -33.253227    -27.240891    -13.625103    30.538349    -22.126163    -6.266743    -3.614956    32.966171    0.000000    0.000000    0.000000    -0.059574    8.838589    -16.646349    2.939189    31.593365    -4.293147    -0.077849    -35.165001    -7.560776    0.000000    0.000000    0.000000    
-31.177240    150.063705    -29.999769    2.654559    0.272658    20.411543    -5.707708    3.238263    2.396225    0.699825    -0.408519    0.749110    -3.964313    -3.071115    -12.411036    13.105366    1.242472    -10.517962    14.857079    -11.851379    -19.122671    -33.335106    -20.391245    -88.032440    44.243599    -66.947708    -55.304714    -31.573631    -45.579651    -49.413013    1.117398    10.018129    3.134925    33.619106    12.383759    55.735779    -30.824804    -31.639641    53.895958    15.666022    -12.474560    32.795460    -2.098474    -33.257282    -27.227243    -13.624807    30.532942    -22.131695    -6.258627    -3.604816    32.958324    0.000000    0.000000    0.000000    -0.066481    8.828494    -16.634424    2.933513    31.600477    -4.272774    -0.069229    -35.157825    -7.558904    0.000000    0.000000    0.000000    
-31.164370    150.067413    -30.005779    2.649847    0.280094    20.398907    -5.708637    3.233321    2.393120    0.702237    -0.409710    0.748120    -3.961587    -3.061631    -12.415834    13.110589    1.242324    -10.523100    14.854096    -11.848369    -19.131815    -33.347427    -20.392466    -88.040802    44.195553    -66.955879    -55.352180    -31.576580    -45.595463    -49.417706    1.121565    10.027612    3.136010    33.625965    12.379997    55.726437    -30.795853    -31.641588    53.926098    15.651882    -12.486113    32.797268    -2.094418    -33.262543    -27.224215    -13.629221    30.525135    -22.114994    -6.252783    -3.592581    32.947472    0.000000    0.000000    0.000000    -0.073207    8.812534    -16.630617    2.928149    31.609133    -4.300378    -0.030826    -35.153767    -7.518803    0.000000    0.000000    0.000000    
-31.148655    150.068619    -30.012945    2.650600    0.286666    20.389475    -5.718993    3.233770    2.389731    0.712578    -0.412586    0.746914    -3.950302    -3.068121    -12.408625    13.105554    1.253026    -10.519197    14.828875    -11.898484    -19.197578    -33.301933    -20.380016    -87.958733    44.226662    -66.978722    -55.335320    -31.571024    -45.629921    -49.421268    1.124505    10.033545    3.134183    33.610958    12.407454    55.720058    -30.834921    -31.663111    53.906891    15.678846    -12.490273    32.783615    -2.097725    -33.265720    -27.225758    -13.633291    30.518515    -22.124710    -6.259556    -3.596263    32.973591    0.000000    0.000000    0.000000    -0.087220    8.799009    -16.635193    2.911624    31.623789    -4.302022    -0.003635    -35.155476    -7.474501    0.000000    0.000000    0.000000    
-31.133656    150.069672    -30.017258    2.649677    0.289445    20.375544    -5.715629    3.225565    2.385157    0.703904    -0.398826    0.745518    -3.972290    -3.079197    -12.410945    13.150320    1.283321    -10.514935    14.826773    -11.901047    -19.193972    -33.282253    -20.371956    -87.966164    44.284092    -67.001686    -55.269375    -31.596357    -45.652565    -49.457451    1.130480    10.038029    3.137560    33.615845    12.406012    55.713814    -30.823668    -31.656225    53.916592    15.690890    -12.481235    32.786415    -2.100885    -33.266029    -27.204710    -13.625623    30.524376    -22.128349    -6.231290    -3.586759    32.967758    0.000000    0.000000    0.000000    -0.098931    8.790181    -16.618824    2.923195    31.635172    -4.315229    0.005128    -35.153511    -7.472508    0.000000    0.000000    0.000000    
-31.116680    150.072159    -30.024162    2.650475    0.299435    20.362755    -5.724757    3.218372    2.386786    0.708535    -0.396664    0.746025    -3.953803    -3.094598    -12.404180    13.136106    1.302194    -10.514605    14.817468    -11.900204    -19.205324    -33.257050    -20.364225    -87.972183    44.390545    -67.022812    -55.155792    -31.651974    -45.650890    -49.520679    1.139334    10.041187    3.125815    33.607506    12.418424    55.710732    -30.820993    -31.657850    53.921188    15.684917    -12.487192    32.769997    -2.102913    -33.267014    -27.207436    -13.628201    30.505924    -22.115875    -6.226312    -3.580588    32.973003    0.000000    0.000000    0.000000    -0.117727    8.774364    -16.618685    2.921083    31.650496    -4.297130    0.000419    -35.153435    -7.475686    0.000000    0.000000    0.000000    
